<svg width="884" height="871" xmlns="http://www.w3.org/2000/svg" xmlns:xlink="http://www.w3.org/1999/xlink" xml:space="preserve" overflow="hidden"><g transform="translate(-2165 -368)"><path d="M2442 920.125 2837.62 920.125 2837.62 933.875 2442 933.875ZM2442 940.75C2434.41 940.75 2428.25 934.594 2428.25 927 2428.25 919.406 2434.41 913.25 2442 913.25 2449.59 913.25 2455.75 919.406 2455.75 927 2455.75 934.594 2449.59 940.75 2442 940.75ZM2830.75 906.375 2872 927 2830.75 947.625Z"/><path d="M2436.13 927 2436.13 531.375 2449.88 531.375 2449.88 927ZM2456.75 927C2456.75 934.594 2450.59 940.75 2443 940.75 2435.41 940.75 2429.25 934.594 2429.25 927 2429.25 919.406 2435.41 913.25 2443 913.25 2450.59 913.25 2456.75 919.406 2456.75 927ZM2422.38 538.25 2443 497 2463.63 538.25Z"/><path d="M4.86135-4.86136 158.248 148.525 148.525 158.248-4.86135 4.86136ZM-9.72271 9.72272C-15.0924 4.35302-15.0924-4.353-9.72272-9.72271-4.35302-15.0924 4.353-15.0924 9.72271-9.72272 15.0924-4.35302 15.0924 4.353 9.72272 9.72271 4.35302 15.0924-4.353 15.0924-9.72271 9.72272ZM163.109 133.941 177.693 177.693 133.941 163.109Z" transform="matrix(-1 0 0 1 2441.69 926)"/><text font-family="Times New Roman,Times New Roman_MSFontService,sans-serif" font-style="italic" font-weight="400" font-size="83" transform="matrix(1 0 0 1 2904.67 956)">x,k</text><text font-family="Times New Roman,Times New Roman_MSFontService,sans-serif" font-style="italic" font-weight="400" font-size="83" transform="matrix(1 0 0 1 2215.05 1170)">y, j</text><text font-family="Times New Roman,Times New Roman_MSFontService,sans-serif" font-style="italic" font-weight="400" font-size="83" transform="matrix(1 0 0 1 2392.75 474)">z, </text><text font-family="Times New Roman,Times New Roman_MSFontService,sans-serif" font-style="italic" font-weight="400" font-size="83" transform="matrix(1 0 0 1 2466.08 474)">i</text></g></svg>