<svg width="619" height="658" xmlns="http://www.w3.org/2000/svg" xmlns:xlink="http://www.w3.org/1999/xlink" xml:space="preserve" overflow="hidden"><g transform="translate(-1087 -368)"><path d="M1157 920.125 1552.63 920.125 1552.63 933.875 1157 933.875ZM1157 940.75C1149.41 940.75 1143.25 934.594 1143.25 927 1143.25 919.406 1149.41 913.25 1157 913.25 1164.59 913.25 1170.75 919.406 1170.75 927 1170.75 934.594 1164.59 940.75 1157 940.75ZM1545.75 906.375 1587 927 1545.75 947.625Z"/><path d="M1149.13 927 1149.13 531.375 1162.88 531.375 1162.88 927ZM1169.75 927C1169.75 934.594 1163.59 940.75 1156 940.75 1148.41 940.75 1142.25 934.594 1142.25 927 1142.25 919.406 1148.41 913.25 1156 913.25 1163.59 913.25 1169.75 919.406 1169.75 927ZM1135.38 538.25 1156 497 1176.63 538.25Z"/><path d="M4.86136-4.86136 196.071 186.348 186.348 196.071-4.86136 4.86136ZM-9.72272 9.72272C-15.0924 4.35301-15.0924-4.35301-9.72272-9.72272-4.35301-15.0924 4.35301-15.0924 9.72272-9.72272 15.0924-4.35301 15.0924 4.35301 9.72272 9.72272 4.35301 15.0924-4.35301 15.0924-9.72272 9.72272ZM200.932 171.764 215.516 215.516 171.764 200.932Z" transform="matrix(1 0 0 -1 1157 926.516)"/><text font-family="Times New Roman,Times New Roman_MSFontService,sans-serif" font-style="italic" font-weight="400" font-size="83" transform="matrix(1 0 0 1 1619.67 957)">x</text><text font-family="Times New Roman,Times New Roman_MSFontService,sans-serif" font-style="italic" font-weight="400" font-size="83" transform="matrix(1 0 0 1 1404.67 674)">y</text><text font-family="Times New Roman,Times New Roman_MSFontService,sans-serif" font-style="italic" font-weight="400" font-size="83" transform="matrix(1 0 0 1 1137.1 474)">z</text></g></svg>