<svg width="2996" height="1530" xmlns="http://www.w3.org/2000/svg" xmlns:xlink="http://www.w3.org/1999/xlink" xml:space="preserve" overflow="hidden"><g transform="translate(-712 -341)"><rect x="778.5" y="773.251" width="770.25" height="933.249" fill="#A6CAEC" fill-opacity="0.25098"/><path d="M1548.75 773.251 1805.5 516.5 1805.5 1449.75 1548.75 1706.5Z" fill="#85A2BE" fill-rule="evenodd" fill-opacity="0.25098"/><path d="M778.5 773.251 1035.25 516.5 1805.5 516.5 1548.75 773.251Z" fill="#B7D4F0" fill-rule="evenodd" fill-opacity="0.25098"/><path d="M778.5 773.251 1035.25 516.5 1805.5 516.5 1805.5 1449.75 1548.75 1706.5 778.5 1706.5ZM778.5 773.251 1548.75 773.251 1805.5 516.5M1548.75 773.251 1548.75 1706.5" stroke="#042433" stroke-width="4.58333" stroke-miterlimit="8" fill="none" fill-rule="evenodd"/><path d="M778 1697.84 1675.55 1697.84 1675.55 1708.16 778 1708.16ZM1670.4 1687.53 1701.33 1703 1670.4 1718.47Z"/><path d="M5.15625-1.71441e-06 5.1566 1059.64-5.1559 1059.64-5.15625 1.71441e-06ZM15.4691 1054.48 0.000360892 1085.42-15.4684 1054.48Z" transform="matrix(1 0 0 -1 778 1705.42)"/><path d="M3.59914-3.6923 33.1376 25.1008 25.9393 32.4854-3.59914 3.6923ZM55.2914 46.6957 84.8298 75.4888 77.6315 82.8734 48.0931 54.0803ZM106.984 97.0836 136.522 125.877 129.324 133.261 99.7854 104.468ZM158.676 147.472 188.214 176.265 181.016 183.649 151.478 154.856ZM210.368 197.86 239.907 226.653 232.708 234.037 203.17 205.244ZM262.06 248.247 291.599 277.041 284.401 284.425 254.862 255.632ZM313.753 298.635 343.129 327.271 335.931 334.655 306.554 306.02ZM346.635 316.287 357.991 348.958 325.04 338.44Z" transform="matrix(1 0 0 -1 778 1702.96)"/><text font-family="Times New Roman,Times New Roman_MSFontService,sans-serif" font-style="italic" font-weight="400" font-size="83" transform="matrix(1 0 0 1 1733.95 1723)">x</text><text font-family="Times New Roman,Times New Roman_MSFontService,sans-serif" font-style="italic" font-weight="400" font-size="83" transform="matrix(1 0 0 1 761.604 584)">z</text><text font-family="Times New Roman,Times New Roman_MSFontService,sans-serif" font-style="italic" font-weight="400" font-size="83" transform="matrix(1 0 0 1 1169.12 1337)">y</text><rect x="2487.5" y="769" width="769.5" height="933.501" fill="#A6CAEC" fill-opacity="0.25098"/><path d="M3257 769 3513.5 512.5 3513.5 1446 3257 1702.5Z" fill="#85A2BE" fill-rule="evenodd" fill-opacity="0.25098"/><path d="M2487.5 769 2744 512.5 3513.5 512.5 3257 769Z" fill="#B7D4F0" fill-rule="evenodd" fill-opacity="0.25098"/><path d="M2487.5 769 2744 512.5 3513.5 512.5 3513.5 1446 3257 1702.5 2487.5 1702.5ZM2487.5 769 3257 769 3513.5 512.5M3257 769 3257 1702.5" stroke="#042433" stroke-width="4.58333" stroke-miterlimit="8" fill="none" fill-rule="evenodd"/><path d="M2750 1448 3513.45 1448" stroke="#000000" stroke-width="10.3125" stroke-miterlimit="8" stroke-dasharray="41.25 30.9375" fill="none" fill-rule="evenodd"/><path d="M0 0 0.000360892 942.21" stroke="#000000" stroke-width="10.3125" stroke-miterlimit="8" stroke-dasharray="41.25 30.9375" fill="none" fill-rule="evenodd" transform="matrix(1 0 0 -1 2750 1454.21)"/><path d="M3.59914-3.69231 33.1376 25.1008 25.9393 32.4854-3.59914 3.69231ZM55.2914 46.6956 84.8299 75.4887 77.6316 82.8733 48.0931 54.0802ZM106.984 97.0835 136.522 125.877 129.324 133.261 99.7854 104.468ZM158.676 147.471 188.214 176.265 181.016 183.649 151.478 154.856ZM210.368 197.859 239.907 226.652 232.708 234.037 203.17 205.244ZM262.061 248.247 291.599 277.04 284.401 284.425 254.862 255.632ZM299.249 270.096 310.605 302.767 277.654 292.25Z" transform="matrix(-1 0 0 1 2749.6 1442)"/><text font-family="Times New Roman,Times New Roman_MSFontService,sans-serif" font-style="italic" font-weight="400" font-size="83" transform="matrix(1 0 0 1 3621.55 1399)">x</text><text font-family="Times New Roman,Times New Roman_MSFontService,sans-serif" font-style="italic" font-weight="400" font-size="83" transform="matrix(1 0 0 1 2813.21 446)">z</text><text font-family="Times New Roman,Times New Roman_MSFontService,sans-serif" font-style="italic" font-weight="400" font-size="83" transform="matrix(1 0 0 1 2392.2 1795)">y</text><path d="M5.15625-1.47516e-05 5.15654 100.364-5.15596 100.364-5.15625 1.47516e-05ZM15.469 95.2081 0.000360892 126.146-15.4685 95.2081Z" transform="matrix(1 0 0 -1 2750 512.146)"/><path d="M3513 1441.84 3625.29 1441.84 3625.29 1452.16 3513 1452.16ZM3620.13 1431.53 3651.07 1447 3620.13 1462.47Z"/><text font-family="Times New Roman,Times New Roman_MSFontService,sans-serif" font-weight="400" font-size="83" transform="matrix(1 0 0 1 2679.3 1802)">Indexed by </text><text font-family="Times New Roman,Times New Roman_MSFontService,sans-serif" font-style="italic" font-weight="400" font-size="83" transform="matrix(1 0 0 1 3068.88 1802)">(</text><text font-family="Times New Roman,Times New Roman_MSFontService,sans-serif" font-style="italic" font-weight="400" font-size="83" transform="matrix(1 0 0 1 3096.38 1802)">z,y,x</text><text font-family="Times New Roman,Times New Roman_MSFontService,sans-serif" font-style="italic" font-weight="400" font-size="83" transform="matrix(1 0 0 1 3238.49 1802)">)</text><path d="M1963 1113 2228 1113 2228 1063 2328 1163 2228 1263 2228 1213 1963 1213Z" fill="#595959" fill-rule="evenodd" fill-opacity="0.501961"/><text font-family="Times New Roman,Times New Roman_MSFontService,sans-serif" font-weight="400" font-size="83" transform="matrix(1 0 0 1 774.886 1802)">Data layout in .</text><text font-family="Times New Roman,Times New Roman_MSFontService,sans-serif" font-weight="400" font-size="83" transform="matrix(1 0 0 1 1283.64 1802)">vtu</text><text font-family="Times New Roman,Times New Roman_MSFontService,sans-serif" font-weight="400" font-size="83" transform="matrix(1 0 0 1 1409.68 1802)">files</text></g></svg>